<svg xmlns="http://www.w3.org/2000/svg" version="1.1" xmlns:xlink="http://www.w3.org/1999/xlink" xmlns:svgjs="http://svgjs.dev/svgjs" width="1000" height="320" viewBox="0 0 1000 320"><g transform="matrix(1,0,0,1,-0.6060606060606233,-0.2968517709364562)"><svg viewBox="0 0 396 127" data-background-color="#282634" preserveAspectRatio="xMidYMid meet" height="320" width="1000" xmlns="http://www.w3.org/2000/svg" xmlns:xlink="http://www.w3.org/1999/xlink"><g id="tight-bounds" transform="matrix(1,0,0,1,0.2400000000000091,0.11781304659041325)"><svg viewBox="0 0 395.52 126.76413738862024" height="126.76413738862024" width="395.52"><g><svg viewBox="0 0 613.5465465807513 196.64163310344824" height="126.76413738862024" width="395.52"><g transform="matrix(1,0,0,1,218.0265465807514,80.20384279979412)"><svg viewBox="0 0 395.5199999999999 36.23394750386001" height="36.23394750386001" width="395.5199999999999"><g id="textblocktransform"><svg viewBox="0 0 395.5199999999999 36.23394750386001" height="36.23394750386001" width="395.5199999999999" id="textblock"><g><svg viewBox="0 0 395.5199999999999 36.23394750386001" height="36.23394750386001" width="395.5199999999999"><g transform="matrix(1,0,0,1,0,0)"><svg width="395.5199999999999" viewBox="1.7 -35.25 388.57 35.6" height="36.23394750386001" data-palette-color="#ffc26f"><path d="M1.7-34.85L25.3-34.85 25.3-31.15 15.8-31.15 15.8 0 11.25 0 11.25-31.15 1.7-31.15 1.7-34.85ZM53.2-34.85L57.75-34.85 57.75 0 53.2 0 53.2-15.8 35.45-15.8 35.45 0 30.9 0 30.9-34.85 35.45-34.85 35.45-19.55 53.2-19.55 53.2-34.85ZM81.3 0.35Q76.45 0.35 72.45-1.93 68.45-4.2 66.12-8.28 63.8-12.35 63.8-17.45L63.8-17.45Q63.8-22.55 66.12-26.63 68.45-30.7 72.45-32.98 76.45-35.25 81.3-35.25L81.3-35.25Q86.2-35.25 90.2-32.98 94.2-30.7 96.5-26.65 98.8-22.6 98.8-17.45L98.8-17.45Q98.8-12.3 96.5-8.25 94.2-4.2 90.2-1.93 86.2 0.35 81.3 0.35L81.3 0.35ZM81.3-3.6Q84.95-3.6 87.87-5.3 90.8-7 92.47-10.15 94.15-13.3 94.15-17.45L94.15-17.45Q94.15-21.65 92.47-24.78 90.8-27.9 87.9-29.6 85-31.3 81.3-31.3L81.3-31.3Q77.59-31.3 74.7-29.6 71.8-27.9 70.12-24.78 68.45-21.65 68.45-17.45L68.45-17.45Q68.45-13.3 70.12-10.15 71.8-7 74.72-5.3 77.65-3.6 81.3-3.6L81.3-3.6ZM128.59 0L123.14 0 114.84-14.25 109.34-14.25 109.34 0 104.79 0 104.79-34.85 116.04-34.85Q119.99-34.85 122.72-33.5 125.44-32.15 126.79-29.85 128.14-27.55 128.14-24.6L128.14-24.6Q128.14-21 126.07-18.25 123.99-15.5 119.84-14.6L119.84-14.6 128.59 0ZM109.34-31.1L109.34-17.9 116.04-17.9Q119.74-17.9 121.59-19.73 123.44-21.55 123.44-24.6L123.44-24.6Q123.44-27.7 121.62-29.4 119.79-31.1 116.04-31.1L116.04-31.1 109.34-31.1ZM135.19-34.85L139.74-34.85 139.74 0 135.19 0 135.19-34.85ZM174.89-34.9L174.89 0 170.34 0 152.04-27.75 152.04 0 147.49 0 147.49-34.9 152.04-34.9 170.34-7.2 170.34-34.9 174.89-34.9ZM220.98-34.85L210.23-17.4 220.93 0 215.78 0 207.43-13.6 199.48 0 194.43 0 205.08-17.4 194.38-34.85 199.48-34.85 207.88-21.2 215.88-34.85 220.98-34.85ZM244.93-34.85L244.93-3.7 257.13-3.7 257.13 0 240.38 0 240.38-34.85 244.93-34.85ZM277.78 0.35Q272.93 0.35 268.93-1.93 264.93-4.2 262.6-8.28 260.28-12.35 260.28-17.45L260.28-17.45Q260.28-22.55 262.6-26.63 264.93-30.7 268.93-32.98 272.93-35.25 277.78-35.25L277.78-35.25Q282.68-35.25 286.68-32.98 290.68-30.7 292.98-26.65 295.28-22.6 295.28-17.45L295.28-17.45Q295.28-12.3 292.98-8.25 290.68-4.2 286.68-1.93 282.68 0.35 277.78 0.35L277.78 0.35ZM277.78-3.6Q281.43-3.6 284.35-5.3 287.28-7 288.95-10.15 290.63-13.3 290.63-17.45L290.63-17.45Q290.63-21.65 288.95-24.78 287.28-27.9 284.38-29.6 281.48-31.3 277.78-31.3L277.78-31.3Q274.08-31.3 271.18-29.6 268.28-27.9 266.6-24.78 264.93-21.65 264.93-17.45L264.93-17.45Q264.93-13.3 266.6-10.15 268.28-7 271.2-5.3 274.13-3.6 277.78-3.6L277.78-3.6ZM325.07 0L319.62 0 311.32-14.25 305.82-14.25 305.82 0 301.27 0 301.27-34.85 312.52-34.85Q316.47-34.85 319.2-33.5 321.92-32.15 323.27-29.85 324.62-27.55 324.62-24.6L324.62-24.6Q324.62-21 322.55-18.25 320.47-15.5 316.32-14.6L316.32-14.6 325.07 0ZM305.82-31.1L305.82-17.9 312.52-17.9Q316.22-17.9 318.07-19.73 319.92-21.55 319.92-24.6L319.92-24.6Q319.92-27.7 318.1-29.4 316.27-31.1 312.52-31.1L312.52-31.1 305.82-31.1ZM355.47 0L350.02 0 341.72-14.25 336.22-14.25 336.22 0 331.67 0 331.67-34.85 342.92-34.85Q346.87-34.85 349.6-33.5 352.32-32.15 353.67-29.85 355.02-27.55 355.02-24.6L355.02-24.6Q355.02-21 352.95-18.25 350.87-15.5 346.72-14.6L346.72-14.6 355.47 0ZM336.22-31.1L336.22-17.9 342.92-17.9Q346.62-17.9 348.47-19.73 350.32-21.55 350.32-24.6L350.32-24.6Q350.32-27.7 348.5-29.4 346.67-31.1 342.92-31.1L342.92-31.1 336.22-31.1ZM385.47 0L382.67-7.75 367.47-7.75 364.67 0 359.87 0 372.47-34.65 377.72-34.65 390.27 0 385.47 0ZM368.77-11.45L381.37-11.45 375.07-29.05 368.77-11.45Z" opacity="1" transform="matrix(1,0,0,1,0,0)" fill="#ffc26f" class="wordmark-text-0" data-fill-palette-color="primary" id="text-0"></path></svg></g></svg></g></svg></g></svg></g><g><svg viewBox="0 0 196.64163310344824 196.64163310344824" height="196.64163310344824" width="196.64163310344824"><g><svg viewBox="0 0 196.64163310344824 196.64163310344824" height="196.64163310344824" width="196.64163310344824"><g transform="matrix(1,0,0,1,51.97193914137568,62.635935099584096)"><svg viewBox="0 0 92.69775482069689 71.36976290428005" height="71.36976290428005" width="92.69775482069689"><g><svg xmlns="http://www.w3.org/2000/svg" xmlns:xlink="http://www.w3.org/1999/xlink" version="1.1" x="0" y="0" viewBox="12.052999999999999 12.02 29.507000000000005 22.718" enable-background="new 0 0 50 50" xml:space="preserve" height="71.36976290428005" width="92.69775482069689" class="icon-z$-0" data-fill-palette-color="accent" id="z$-0"><g fill="#dcdcdc" data-fill-palette-color="accent"><path d="M41.56 20.09c0 3.322-2.327 6.087-5.399 6.676v-2.514c1.742-0.54 3.014-2.198 3.014-4.163 0-1.962-1.271-3.623-3.014-4.162v-2.514C39.232 14.004 41.56 16.769 41.56 20.09z" fill="#dcdcdc" data-fill-palette-color="accent"></path><rect x="15.38" y="12.02" width="18.78" height="18.853" fill="#dcdcdc" data-fill-palette-color="accent"></rect><path d="M37.711 33.8c0 0.518-0.53 0.938-1.185 0.938H13.238c-0.655 0-1.185-0.42-1.185-0.938 0-0.26 0.132-0.492 0.347-0.662 0.213-0.17 0.509-0.275 0.838-0.275H34.16h2 0.366C37.181 32.862 37.711 33.282 37.711 33.8z" fill="#dcdcdc" data-fill-palette-color="accent"></path></g></svg></g></svg></g><g><path d="M2.333 72.827l3.343-10.155 1.59 0.523-1.346 4.089 13.401 4.412-0.645 1.959-13.401-4.412-1.352 4.107z" fill="#dcdcdc" data-fill-palette-color="accent"></path><path d="M14.43 45.792l1.011-1.798 13.755 7.738-1.011 1.798-6.235-3.508-3.942 7.008 6.235 3.508-1.012 1.797-13.755-7.738 1.011-1.798 6.036 3.396 3.942-7.008z" fill="#dcdcdc" data-fill-palette-color="accent"></path><path d="M38.367 41.597c-1.004 1.062-2.172 1.795-3.504 2.2-1.328 0.409-2.68 0.447-4.057 0.115-1.377-0.342-2.623-1.039-3.738-2.093v0c-1.12-1.058-1.89-2.265-2.309-3.621-0.41-1.356-0.448-2.708-0.115-4.056 0.328-1.353 0.994-2.561 1.998-3.623v0c1.017-1.077 2.192-1.817 3.524-2.222 1.328-0.409 2.673-0.445 4.036-0.107 1.367 0.332 2.618 1.035 3.753 2.106v0c1.13 1.067 1.899 2.274 2.308 3.621 0.414 1.342 0.454 2.687 0.122 4.035-0.328 1.353-1.001 2.568-2.018 3.645zM37.063 40.365c0.757-0.801 1.253-1.699 1.489-2.692 0.235-0.993 0.181-2-0.164-3.019-0.344-1.029-0.97-1.972-1.877-2.83v0c-0.922-0.871-1.902-1.445-2.939-1.72-1.037-0.285-2.043-0.285-3.016 0.001-0.969 0.281-1.84 0.83-2.611 1.645v0c-0.766 0.811-1.265 1.711-1.495 2.7-0.23 0.989-0.174 1.993 0.17 3.012 0.339 1.015 0.969 1.958 1.892 2.829v0c0.908 0.858 1.883 1.431 2.924 1.721 1.037 0.285 2.045 0.283 3.024-0.008 0.978-0.291 1.846-0.837 2.603-1.639z" fill="#dcdcdc" data-fill-palette-color="accent"></path><path d="M57.359 26.195l-2.048 1.383-6.726-3.25-2.065 1.394 3.613 5.351-1.71 1.154-8.83-13.081 4.228-2.854c0.985-0.665 1.933-1.06 2.842-1.186 0.909-0.125 1.727-0.012 2.453 0.34 0.728 0.342 1.343 0.885 1.845 1.628v0c0.606 0.897 0.879 1.867 0.821 2.908-0.053 1.038-0.523 2.02-1.412 2.948v0zM42.25 19.396l3.345 4.955 2.519-1.701c0.925-0.624 1.464-1.321 1.618-2.09 0.154-0.769-0.025-1.534-0.538-2.293v0c-0.524-0.776-1.159-1.225-1.907-1.346-0.743-0.115-1.583 0.143-2.518 0.775v0z" fill="#dcdcdc" data-fill-palette-color="accent"></path><path d="M56.57 9.064l1.867-0.877 6.713 14.283-1.866 0.877z" fill="#dcdcdc" data-fill-palette-color="accent"></path><path d="M79.48 1.558l4.211 15.241-1.988 0.549-11.339-9.912 3.349 12.12-1.988 0.549-4.211-15.241 1.988-0.549 11.334 9.893-3.344-12.101z" fill="#dcdcdc" data-fill-palette-color="accent"></path><path d="M112.589 0.876l-5.434 7.526 4.257 8.213-2.325-0.17-3.319-6.415-4.045 5.879-2.275-0.166 5.382-7.51-4.265-8.233 2.305 0.168 3.347 6.438 4.067-5.898z" fill="#dcdcdc" data-fill-palette-color="accent"></path><path d="M134.532 6.792l-5.128 13.143 5.151 2.01-0.608 1.56-7.073-2.76 5.736-14.703z" fill="#dcdcdc" data-fill-palette-color="accent"></path><path d="M144.619 30.21c-1.225-0.796-2.156-1.814-2.793-3.052-0.641-1.233-0.921-2.556-0.842-3.97 0.089-1.416 0.551-2.767 1.388-4.054v0c0.84-1.292 1.889-2.266 3.147-2.921 1.26-0.646 2.583-0.927 3.97-0.842 1.39 0.08 2.698 0.518 3.923 1.314v0c1.242 0.807 2.181 1.83 2.818 3.068 0.641 1.233 0.918 2.549 0.831 3.951-0.081 1.405-0.548 2.762-1.399 4.071v0c-0.847 1.303-1.896 2.277-3.147 2.921-1.245 0.648-2.561 0.93-3.948 0.844-1.39-0.08-2.706-0.523-3.948-1.33zM145.597 28.706c0.924 0.601 1.896 0.928 2.916 0.981 1.019 0.053 2-0.182 2.94-0.703 0.95-0.523 1.766-1.308 2.447-2.355v0c0.692-1.064 1.08-2.13 1.165-3.2 0.094-1.072-0.086-2.061-0.543-2.968-0.451-0.903-1.147-1.661-2.088-2.272v0c-0.936-0.608-1.91-0.937-2.924-0.986-1.014-0.049-1.991 0.187-2.932 0.708-0.937 0.516-1.752 1.305-2.444 2.369v0c-0.681 1.047-1.07 2.109-1.168 3.186-0.094 1.072 0.089 2.062 0.551 2.973 0.462 0.91 1.155 1.666 2.08 2.267z" fill="#dcdcdc" data-fill-palette-color="accent"></path><path d="M163.183 46.126l-1.728-1.766 1.988-7.2-1.742-1.781-4.615 4.515-1.442-1.474 11.282-11.037 3.567 3.647c0.831 0.85 1.39 1.711 1.677 2.583 0.286 0.872 0.322 1.697 0.106 2.474-0.206 0.777-0.629 1.48-1.27 2.107v0c-0.774 0.757-1.678 1.2-2.713 1.33-1.03 0.134-2.082-0.152-3.154-0.859v0zM167.157 30.042l-4.273 4.18 2.125 2.173c0.78 0.798 1.563 1.203 2.347 1.216 0.784 0.013 1.504-0.301 2.159-0.941v0c0.669-0.655 0.997-1.361 0.982-2.117-0.02-0.752-0.425-1.531-1.215-2.339v0z" fill="#dcdcdc" data-fill-palette-color="accent"></path><path d="M172.636 60.311l-1.336-2.078 3.4-6.651-1.347-2.096-5.431 3.491-1.116-1.735 13.277-8.533 2.758 4.291c0.643 1 1.017 1.956 1.121 2.868 0.105 0.912-0.027 1.727-0.394 2.445-0.358 0.72-0.915 1.322-1.669 1.807v0c-0.911 0.585-1.886 0.837-2.926 0.756-1.036-0.076-2.008-0.569-2.916-1.478v0zM179.773 45.359l-5.029 3.233 1.643 2.556c0.603 0.939 1.288 1.494 2.054 1.665 0.765 0.171 1.534 0.009 2.305-0.486v0c0.788-0.506 1.251-1.132 1.388-1.876 0.132-0.74-0.107-1.585-0.718-2.535v0z" fill="#dcdcdc" data-fill-palette-color="accent"></path><path d="M178.744 75.92l2.857-2.397-2.372-6.463-3.732 0.011-0.749-2.039 16.699-0.047 0.821 2.235-12.775 10.739zM181.012 67.032l1.967 5.359 6.498-5.431z" fill="#dcdcdc" data-fill-palette-color="accent"></path><path d="M20.71 121.02l3.417 10.34-1.627 0.538-1.376-4.163-13.651 4.512-0.66-1.997 13.651-4.511-1.382-4.182z" fill="#dcdcdc" data-fill-palette-color="accent"></path><path d="M31.395 144.773l1.028 1.823-14.017 7.903-1.028-1.823 6.353-3.582-4.027-7.143-6.353 3.582-1.033-1.831 14.017-7.903 1.033 1.831-6.154 3.47 4.028 7.143z" fill="#dcdcdc" data-fill-palette-color="accent"></path><path d="M29.17 167.244c-1.024-1.08-1.708-2.308-2.051-3.684-0.335-1.376-0.296-2.754 0.117-4.134 0.422-1.38 1.202-2.609 2.339-3.688v0c1.142-1.083 2.414-1.799 3.814-2.146 1.4-0.339 2.778-0.304 4.134 0.102 1.356 0.417 2.546 1.165 3.57 2.245v0c1.037 1.094 1.728 2.329 2.072 3.706 0.335 1.376 0.296 2.749-0.116 4.12-0.422 1.37-1.209 2.601-2.361 3.694v0c-1.147 1.088-2.416 1.806-3.807 2.154-1.39 0.339-2.764 0.305-4.12-0.103-1.356-0.417-2.553-1.172-3.591-2.266zM30.494 165.989c0.772 0.815 1.66 1.369 2.662 1.664 0.998 0.299 2.024 0.3 3.08 0.004 1.06-0.291 2.053-0.876 2.978-1.753v0c0.94-0.891 1.581-1.856 1.924-2.895 0.347-1.034 0.4-2.054 0.158-3.061-0.232-1.007-0.741-1.925-1.526-2.754v0c-0.782-0.824-1.669-1.379-2.662-1.664-0.993-0.294-2.015-0.296-3.066-0.004-1.055 0.287-2.053 0.876-2.993 1.767v0c-0.925 0.878-1.562 1.838-1.909 2.881-0.352 1.038-0.405 2.064-0.159 3.076 0.236 1.012 0.741 1.925 1.513 2.739z" fill="#dcdcdc" data-fill-palette-color="accent"></path><path d="M50.644 184.251l-2.084-1.4 0.484-7.598-2.109-1.417-3.668 5.458-1.745-1.172 8.975-13.357 4.317 2.901c1.009 0.678 1.744 1.424 2.205 2.238 0.461 0.814 0.669 1.63 0.624 2.448-0.055 0.82-0.334 1.604-0.837 2.354v0c-0.619 0.921-1.428 1.553-2.428 1.898-1.003 0.35-2.112 0.285-3.327-0.194v0zM51.275 167.377l-3.401 5.061 2.572 1.729c0.943 0.633 1.809 0.875 2.598 0.725 0.78-0.148 1.433-0.614 1.959-1.397v0c0.53-0.788 0.709-1.556 0.539-2.303-0.176-0.75-0.741-1.446-1.695-2.087v0z" fill="#dcdcdc" data-fill-palette-color="accent"></path><path d="M64.899 173.363l1.903 0.892-6.826 14.571-1.904-0.892z" fill="#dcdcdc" data-fill-palette-color="accent"></path><path d="M84.843 179.677l-4.28 15.532-2.027-0.558-4.741-14.598-3.405 12.353-2.027-0.559 4.281-15.532 2.027 0.559 4.749 14.569 3.396-12.324z" fill="#dcdcdc" data-fill-palette-color="accent"></path><path d="M111.275 179.708l-4.368 8.398 5.499 7.654-2.365 0.171-4.299-5.983-3.204 6.525-2.326 0.169 4.32-8.365-5.51-7.683 2.355-0.17 4.321 6.011 3.222-6.557z" fill="#dcdcdc" data-fill-palette-color="accent"></path><path d="M127.309 175.146l5.196 13.417 5.249-2.033 0.616 1.589-7.211 2.792-5.81-15.005z" fill="#dcdcdc" data-fill-palette-color="accent"></path><path d="M151.434 180.56c-1.249 0.808-2.582 1.254-3.999 1.339-1.414 0.076-2.762-0.216-4.042-0.874-1.279-0.668-2.343-1.661-3.194-2.977v0c-0.855-1.322-1.325-2.703-1.409-4.144-0.076-1.438 0.211-2.787 0.86-4.045 0.659-1.257 1.613-2.289 2.863-3.096v0c1.266-0.819 2.607-1.271 4.024-1.356 1.414-0.076 2.757 0.215 4.028 0.872 1.269 0.666 2.335 1.666 3.197 2.999v0c0.858 1.328 1.331 2.707 1.418 4.138 0.078 1.429-0.208 2.773-0.858 4.031-0.659 1.257-1.621 2.294-2.888 3.113zM150.444 179.029c0.943-0.61 1.651-1.38 2.125-2.311 0.477-0.926 0.667-1.934 0.57-3.027-0.091-1.096-0.483-2.179-1.176-3.25v0c-0.703-1.088-1.534-1.895-2.492-2.423-0.952-0.531-1.946-0.771-2.98-0.719-1.032 0.043-2.028 0.374-2.988 0.995v0c-0.954 0.617-1.662 1.387-2.125 2.311-0.472 0.922-0.661 1.926-0.567 3.013 0.088 1.09 0.483 2.179 1.187 3.266v0c0.692 1.071 1.52 1.873 2.481 2.406 0.956 0.537 1.954 0.777 2.994 0.722 1.038-0.046 2.028-0.374 2.971-0.983z" fill="#dcdcdc" data-fill-palette-color="accent"></path><path d="M172.099 162.578l-1.76 1.791-7.379-1.872-1.781 1.813 4.691 4.608-1.473 1.5-11.479-11.277 3.645-3.71c0.852-0.867 1.72-1.453 2.605-1.757 0.885-0.304 1.725-0.358 2.521-0.163 0.796 0.204 1.516 0.623 2.16 1.256v0c0.791 0.777 1.264 1.689 1.42 2.735 0.16 1.051-0.108 2.129-0.803 3.234v0zM155.628 158.856l4.35 4.274 2.171-2.211c0.796-0.81 1.193-1.617 1.191-2.42-0.002-0.794-0.34-1.521-1.013-2.182v0c-0.678-0.666-1.399-0.983-2.164-0.953-0.77 0.035-1.558 0.462-2.363 1.282v0z" fill="#dcdcdc" data-fill-palette-color="accent"></path><path d="M183.148 146.411l-1.362 2.109-7.605-0.344-1.378 2.134 5.524 3.567-1.141 1.766-13.517-8.729 2.821-4.369c0.659-1.021 1.392-1.77 2.197-2.246 0.806-0.476 1.618-0.699 2.436-0.668 0.82 0.04 1.61 0.304 2.37 0.794v0c0.932 0.602 1.579 1.399 1.942 2.393 0.368 0.997 0.324 2.107-0.134 3.329v0zM166.265 146.089l5.123 3.308 1.681-2.604c0.616-0.954 0.842-1.824 0.678-2.61-0.162-0.777-0.64-1.421-1.433-1.933v0c-0.798-0.515-1.569-0.681-2.312-0.497-0.747 0.19-1.432 0.767-2.056 1.733v0z" fill="#dcdcdc" data-fill-palette-color="accent"></path><path d="M190.482 128.351l-3.801-0.033-2.428 6.581 2.908 2.454-0.77 2.084-12.988-10.995 0.838-2.271 17.01 0.095zM182.862 133.748l2.014-5.459-8.635-0.085z" fill="#dcdcdc" data-fill-palette-color="accent"></path><path d="M2.092 99.944c0-3.37 2.732-6.101 6.101-6.102 3.37 0 6.101 2.732 6.102 6.102 0 3.37-2.732 6.101-6.102 6.101-3.37 0-6.101-2.732-6.101-6.101z" fill="#dcdcdc" data-fill-palette-color="accent"></path><path d="M182.347 99.944c0-3.37 2.732-6.101 6.101-6.102 3.37 0 6.101 2.732 6.101 6.102 0 3.37-2.732 6.101-6.101 6.101-3.37 0-6.101-2.732-6.101-6.101z" fill="#dcdcdc" data-fill-palette-color="accent"></path></g></svg></g></svg></g></svg></g><defs></defs></svg><rect width="395.52" height="126.76413738862024" fill="none" stroke="none" visibility="hidden"></rect></g></svg></g></svg>